<svg width="121" height="128" viewBox="0 0 121 128" fill="none" xmlns="http://www.w3.org/2000/svg">
    <path d="M2.5 57.4999L2.5 4.99999C2.5 3.61929 3.61929 2.5 5 2.5L108 2.49997C109.381 2.49997 110.5 3.61926 110.5 4.99997L110.5 23.9999C110.5 24.8283 109.828 25.4999 109 25.4999L59.4208 25.4999C58.1095 25.4999 56.8631 26.0704 56.0061 27.0628C49.9732 34.0483 48.9128 44.0457 53.3461 52.1413L56.2806 57.4999L2.5 57.4999Z" stroke="#001D4A" stroke-width="5"/>
    <path d="M3.08252 106.447V75.9468H110.078V106.447C110.078 107.828 108.959 108.947 107.578 108.947H48.5825H46.0825V111.447V124.947H30.5825C26.4404 124.947 23.0825 121.589 23.0825 117.447V111.447V108.947H20.5825H5.58252C4.20181 108.947 3.08252 107.828 3.08252 106.447Z" stroke="#001D4A" stroke-width="5"/>
    <path d="M11.5 96.4468L24.9409 96.4468C27.7244 96.4468 30.2075 98.1967 31.1437 100.818V100.818C31.7166 102.422 31.31 104.213 30.1006 105.413L28.5 107L27.0242 108.291C25.3574 109.75 23.9905 111.519 23 113.5V113.5" stroke="#001D4A" stroke-width="5"/>
    <path d="M62.5825 96.4468H54.0547C51.3138 96.4468 48.8083 97.9954 47.5825 100.447V100.447L46.7001 102.212C45.9724 103.667 45.7058 105.31 45.9359 106.921L46.5825 111.447" stroke="#001D4A" stroke-width="5"/>
    <line x1="50.5825" y1="108.947" x2="37.5825" y2="108.947" stroke="#001D4A" stroke-width="5"/>
    <path d="M111.583 75.9468H118V68.2721C118 67.4373 117.791 66.6159 117.392 65.8826L110.083 52.4468L107.679 47.2578C104.203 39.7545 105.297 30.9273 110.5 24.5V24.5" stroke="#001D4A" stroke-width="5"/>
    <path d="M93.25 26L92.3003 28.1808C89.621 34.3333 90.2617 41.4271 94 47V47" stroke="#001D4A" stroke-width="3"/>
    <path d="M80.25 26L79.3003 28.1808C76.621 34.3333 77.2617 41.4271 81 47V47" stroke="#001D4A" stroke-width="3"/>
    <path d="M67.25 26L66.3003 28.1808C63.621 34.3333 64.2617 41.4271 68 47V47" stroke="#001D4A" stroke-width="3"/>
</svg>
